<?xml version="1.0" standalone="no"?>
<!DOCTYPE svg PUBLIC "-//W3C//DTD SVG 1.1//EN" "http://www.w3.org/Graphics/SVG/1.1/DTD/svg11.dtd"><svg xmlns="http://www.w3.org/2000/svg" style="background-color:#FFF" width="933" height="933"><path stroke="black" fill="none" stroke-width="1" d="M176.2, 171.82L177.172, 171.937L178.045, 172.272L178.797, 172.791L179.404, 173.463L179.844, 174.255L180.092, 175.135L180.126, 176.07L179.923, 177.027L179.302, 178.871L177.458, 179.491L176.177, 179.699L174.673, 179.403L173.399, 178.551L172.533, 177.245L172.245, 175.76L172.533, 174.275L173.399, 172.969L174.687, 172.12L176.2, 171.82"/><path stroke="black" fill="none" stroke-width="1" d="M380.27, 357.68L382.012, 358.543L382.927, 359.162L383.623, 359.994L384.065, 360.985L384.219, 362.079L383.908, 363.616L383.062, 364.871L381.807, 365.717L380.27, 366.028L378.733, 365.717L377.478, 364.871L376.631, 363.615L376.32, 362.078L376.473, 360.988L376.913, 360.003L377.608, 359.171L378.528, 358.543L380.27, 357.68"/><path stroke="black" fill="none" stroke-width="1" d="M176.2, 165.66L176.199, 165.66L178.18, 165.856L180.067, 166.43L181.806, 167.36L183.344, 168.625L184.302, 169.732L185.072, 170.934L186.05, 173.543L186.279, 176.287L185.762, 179L248.465, 241.703L344.227, 241.703L384.743, 282.218L384.746, 353.028L387.032, 354.581L388.811, 356.684L389.473, 357.906L389.965, 359.222L390.271, 360.618L390.376, 362.078L390.171, 364.116L389.581, 366.014L388.649, 367.732L387.415, 369.228L385.919, 370.462L384.201, 371.394L382.304, 371.983L380.267, 372.188L378.229, 371.983L376.331, 371.393L374.613, 370.461L373.117, 369.227L371.883, 367.73L370.951, 366.013L370.362, 364.115L370.157, 362.078L370.262, 360.616L370.568, 359.221L371.06, 357.905L371.722, 356.683L373.502, 354.58L375.787, 353.028L375.787, 285.934L340.517, 250.664L244.755, 250.664L179.427, 185.336L177.825, 185.733L176.184, 185.867L174.207, 185.674L172.325, 185.103L170.59, 184.175L169.056, 182.914L167.76, 181.329L166.834, 179.572L166.279, 177.699L166.094, 175.769L166.279, 173.839L166.834, 171.966L167.76, 170.207L169.056, 168.621L170.639, 167.324L172.396, 166.399L174.27, 165.845L176.2, 165.66"/><path stroke="black" fill="none" stroke-width="1" d="M266.77, 86.027L268.307, 86.338L269.563, 87.184L270.409, 88.44L270.72, 89.977L270.567, 91.066L270.127, 92.051L269.432, 92.88L268.512, 93.504L266.77, 94.367L265.028, 93.504L264.109, 92.878L263.415, 92.049L262.975, 91.065L262.821, 89.976L263.133, 88.44L263.979, 87.185L265.234, 86.339L266.77, 86.027"/><path stroke="black" fill="none" stroke-width="1" d="M409.01, 389.047L410.752, 389.91L411.671, 390.535L412.366, 391.365L412.805, 392.349L412.959, 393.438L412.648, 394.975L411.802, 396.23L410.547, 397.076L409.01, 397.387L407.473, 397.076L406.217, 396.229L405.371, 394.974L405.06, 393.437L405.213, 392.348L405.653, 391.363L406.348, 390.534L407.268, 389.91L409.01, 389.047"/><path stroke="black" fill="none" stroke-width="1" d="M266.77, 79.867L266.769, 79.871L268.806, 80.076L270.703, 80.665L272.42, 81.597L273.915, 82.83L275.15, 84.326L276.082, 86.042L276.672, 87.938L276.879, 89.974L276.774, 91.436L276.468, 92.831L275.976, 94.147L275.313, 95.369L273.534, 97.472L271.249, 99.024L271.249, 178.766L299.937, 206.43L359.343, 206.434L413.488, 260.579L413.492, 384.399L415.777, 385.952L417.556, 388.055L418.219, 389.277L418.71, 390.593L419.016, 391.989L419.121, 393.449L418.916, 395.487L418.326, 397.385L417.394, 399.103L416.16, 400.599L414.664, 401.833L412.946, 402.765L411.049, 403.354L409.012, 403.559L406.974, 403.354L405.076, 402.764L403.359, 401.832L401.863, 400.598L400.629, 399.101L399.697, 397.384L399.108, 395.486L398.903, 393.449L399.008, 391.987L399.314, 390.592L399.806, 389.276L400.468, 388.054L402.247, 385.951L404.532, 384.399L404.532, 264.289L355.637, 215.394L296.32, 215.394L262.29, 182.578L262.29, 99.026L260.005, 97.473L258.226, 95.37L257.564, 94.148L257.072, 92.832L256.766, 91.437L256.661, 89.976L256.866, 87.938L257.456, 86.04L258.388, 84.323L259.622, 82.827L261.118, 81.593L262.836, 80.661L264.733, 80.072L266.77, 79.867"/><path stroke="black" fill="none" stroke-width="1" d="M522.83, 173.79L524.34, 174.088L525.62, 174.942L526.475, 176.221L526.771, 177.732L526.465, 179.264L525.623, 180.516L524.373, 181.36L522.841, 181.669L521.561, 181.462L519.717, 180.841L519.096, 178.997L518.888, 177.914L518.984, 176.836L519.369, 175.825L520.029, 174.942L521.316, 174.09L522.83, 173.79"/><path stroke="black" fill="none" stroke-width="1" d="M437.76, 418.17L439.502, 419.033L440.421, 419.659L441.116, 420.488L441.555, 421.472L441.709, 422.561L441.398, 424.098L440.552, 425.353L439.297, 426.199L437.76, 426.51L436.223, 426.199L434.967, 425.353L434.121, 424.097L433.81, 422.56L433.963, 421.47L434.403, 420.485L435.098, 419.653L436.018, 419.025L437.76, 418.17"/><path stroke="black" fill="none" stroke-width="1" d="M522.83, 167.63L524.809, 167.825L526.694, 168.398L528.432, 169.326L529.97, 170.587L531.266, 172.172L532.192, 173.929L532.747, 175.802L532.932, 177.732L532.747, 179.662L532.192, 181.535L531.266, 183.294L529.97, 184.88L528.39, 186.174L526.637, 187.096L524.768, 187.649L522.841, 187.833L521.199, 187.698L519.599, 187.302L474.537, 232.364L474.537, 292.844L442.239, 325.14L442.239, 413.52L444.525, 415.073L446.304, 417.176L446.966, 418.398L447.458, 419.714L447.764, 421.11L447.869, 422.57L447.664, 424.608L447.074, 426.506L446.142, 428.224L444.908, 429.72L443.412, 430.954L441.694, 431.886L439.797, 432.475L437.76, 432.68L435.722, 432.475L433.824, 431.885L432.106, 430.953L430.61, 429.719L429.376, 428.222L428.444, 426.505L427.855, 424.607L427.65, 422.57L427.755, 421.108L428.061, 419.713L428.553, 418.397L429.215, 417.175L430.995, 415.072L433.28, 413.52L433.28, 321.434L465.577, 289.136L465.577, 228.656L513.268, 180.966L512.75, 178.254L512.98, 175.51L513.958, 172.9L514.728, 171.697L515.686, 170.59L517.223, 169.325L518.962, 168.395L520.849, 167.823L522.83, 167.63"/><path stroke="black" fill="none" stroke-width="1" d="M204.48, 129.92L205.452, 130.037L206.325, 130.372L207.077, 130.891L207.684, 131.563L208.124, 132.355L208.372, 133.235L208.406, 134.17L208.203, 135.127L207.582, 136.971L205.746, 137.591L204.468, 137.799L202.964, 137.503L201.691, 136.651L200.835, 135.372L200.539, 133.861L200.837, 132.351L201.691, 131.072L202.971, 130.217L204.481, 129.92"/><path stroke="black" fill="none" stroke-width="1" d="M260.769, 209.904L262.273, 210.2L263.546, 211.052L264.403, 212.331L264.699, 213.842L264.401, 215.352L263.546, 216.631L262.267, 217.487L260.757, 217.783L259.786, 217.666L258.912, 217.331L258.161, 216.811L257.553, 216.139L257.114, 215.347L256.866, 214.468L256.832, 213.533L257.035, 212.576L257.655, 210.732L259.5, 210.111L260.77, 209.904"/><path stroke="black" fill="none" stroke-width="1" d="M204.48, 123.759L206.462, 123.952L208.349, 124.524L210.088, 125.454L211.625, 126.72L212.583, 127.827L213.353, 129.029L214.331, 131.638L214.56, 134.382L214.043, 137.095L232.051, 155.103L232.051, 178.806L257.516, 204.27L259.117, 203.874L260.757, 203.74L262.734, 203.933L264.617, 204.504L266.353, 205.431L267.887, 206.693L269.183, 208.278L270.108, 210.035L270.664, 211.908L270.849, 213.838L270.664, 215.768L270.108, 217.641L269.183, 219.4L267.887, 220.986L266.304, 222.282L264.546, 223.207L262.672, 223.761L260.742, 223.946L258.761, 223.752L256.875, 223.179L255.136, 222.25L253.598, 220.986L252.64, 219.879L251.87, 218.677L250.892, 216.068L250.662, 213.324L251.18, 210.611L223.09, 182.521L223.09, 158.818L207.707, 143.435L206.105, 143.832L204.464, 143.966L202.487, 143.773L200.605, 143.202L198.87, 142.274L197.336, 141.013L196.04, 139.428L195.114, 137.671L194.559, 135.798L194.374, 133.868L194.559, 131.937L195.114, 130.064L196.04, 128.305L197.336, 126.719L198.873, 125.454L200.612, 124.524L202.499, 123.952L204.48, 123.759"/><path stroke="black" fill="none" stroke-width="1" d="M146.93, 257.39L148.467, 257.701L149.723, 258.548L150.569, 259.803L150.88, 261.34L150.727, 262.429L150.287, 263.414L149.592, 264.243L148.672, 264.867L146.93, 265.73L145.188, 264.866L144.274, 264.249L143.579, 263.419L143.136, 262.431L142.981, 261.339L143.293, 259.803L144.139, 258.548L145.394, 257.702L146.93, 257.39"/><path stroke="black" fill="none" stroke-width="1" d="M180.121, 330.867L181.625, 331.163L182.898, 332.015L183.755, 333.294L184.051, 334.805L183.753, 336.315L182.898, 337.594L181.619, 338.45L180.109, 338.746L179.138, 338.629L178.264, 338.294L177.513, 337.774L176.905, 337.102L176.466, 336.31L176.218, 335.431L176.184, 334.496L176.387, 333.539L177.007, 331.695L178.851, 331.074L180.121, 330.867"/><path stroke="black" fill="none" stroke-width="1" d="M146.93, 251.23L148.967, 251.435L150.864, 252.025L152.581, 252.957L154.077, 254.191L155.311, 255.687L156.244, 257.403L156.833, 259.3L157.04, 261.336L156.935, 262.798L156.629, 264.193L156.137, 265.509L155.475, 266.731L153.696, 268.834L151.411, 270.386L151.411, 299.777L176.876, 325.241L178.478, 324.845L180.117, 324.711L182.094, 324.904L183.977, 325.475L185.713, 326.402L187.247, 327.664L188.543, 329.249L189.468, 331.006L190.024, 332.879L190.209, 334.809L190.024, 336.739L189.468, 338.612L188.543, 340.371L187.247, 341.957L185.664, 343.253L183.906, 344.178L182.032, 344.732L180.102, 344.917L178.121, 344.723L176.235, 344.15L174.496, 343.221L172.958, 341.957L172, 340.85L171.23, 339.648L170.252, 337.039L170.022, 334.295L170.54, 331.582L142.45, 303.492L142.45, 270.389L140.165, 268.836L138.386, 266.733L137.723, 265.511L137.231, 264.195L136.925, 262.8L136.82, 261.339L137.025, 259.301L137.615, 257.403L138.547, 255.686L139.782, 254.19L141.278, 252.956L142.995, 252.024L144.893, 251.435L146.93, 251.23"/><path stroke="black" fill="none" stroke-width="1" d="M459.41, 106.19L460.947, 106.501L462.202, 107.348L463.049, 108.603L463.36, 110.14L463.207, 111.229L462.767, 112.214L462.072, 113.043L461.152, 113.667L459.41, 114.53L457.668, 113.667L456.754, 113.05L456.058, 112.22L455.616, 111.231L455.461, 110.139L455.772, 108.603L456.619, 107.348L457.874, 106.501L459.41, 106.19"/><path stroke="black" fill="none" stroke-width="1" d="M439.25, 266.97L440.992, 267.833L441.906, 268.45L442.602, 269.28L443.044, 270.269L443.199, 271.361L442.888, 272.898L442.042, 274.153L440.787, 274.999L439.25, 275.31L437.713, 274.999L436.457, 274.153L435.611, 272.897L435.3, 271.36L435.453, 270.271L435.893, 269.286L436.588, 268.457L437.508, 267.833L439.25, 266.97"/><path stroke="black" fill="none" stroke-width="1" d="M459.41, 100.03L459.41, 100.029L461.447, 100.234L463.344, 100.823L465.061, 101.755L466.556, 102.988L467.791, 104.483L468.723, 106.199L469.312, 108.095L469.519, 110.131L469.414, 111.593L469.108, 112.989L468.617, 114.305L467.954, 115.527L466.175, 117.63L463.89, 119.182L463.89, 162.362L443.73, 182.522L443.73, 262.319L446.015, 263.872L447.794, 265.976L448.457, 267.197L448.948, 268.513L449.254, 269.909L449.359, 271.369L449.154, 273.407L448.564, 275.305L447.632, 277.023L446.398, 278.519L444.902, 279.753L443.184, 280.685L441.287, 281.274L439.25, 281.479L437.212, 281.274L435.314, 280.684L433.597, 279.752L432.101, 278.518L430.867, 277.021L429.935, 275.304L429.346, 273.406L429.141, 271.369L429.246, 269.907L429.552, 268.512L430.043, 267.196L430.706, 265.974L432.485, 263.871L434.77, 262.319L434.77, 178.819L454.93, 158.659L454.93, 119.189L452.645, 117.636L450.866, 115.533L450.203, 114.311L449.712, 112.995L449.406, 111.6L449.301, 110.139L449.506, 108.101L450.096, 106.203L451.028, 104.486L452.262, 102.99L453.758, 101.756L455.476, 100.824L457.373, 100.235L459.41, 100.03"/><path stroke="black" fill="none" stroke-width="1" d="M499.73, 136.43L501.267, 136.741L502.522, 137.587L503.369, 138.843L503.68, 140.38L503.527, 141.469L503.087, 142.454L502.392, 143.283L501.472, 143.907L499.73, 144.77L497.988, 143.906L497.074, 143.289L496.379, 142.459L495.937, 141.471L495.781, 140.379L496.092, 138.843L496.939, 137.588L498.194, 136.741L499.73, 136.43"/><path stroke="black" fill="none" stroke-width="1" d="M476.625, 179.668L477.906, 179.875L479.75, 180.496L480.371, 182.34L480.579, 183.423L480.483, 184.501L480.098, 185.512L479.438, 186.395L478.159, 187.251L476.648, 187.547L475.138, 187.25L473.859, 186.395L472.993, 185.089L472.705, 183.604L472.993, 182.119L473.859, 180.813L475.126, 179.959L476.625, 179.668"/><path stroke="black" fill="none" stroke-width="1" d="M499.73, 130.27L501.767, 130.475L503.664, 131.065L505.381, 131.997L506.877, 133.232L508.111, 134.729L509.044, 136.447L509.633, 138.345L509.84, 140.383L509.735, 141.845L509.429, 143.241L508.938, 144.557L508.275, 145.779L506.496, 147.882L504.211, 149.435L504.211, 162.375L486.203, 180.383L486.72, 183.095L486.491, 185.839L485.513, 188.449L484.743, 189.652L483.785, 190.759L482.202, 192.055L480.444, 192.98L478.57, 193.534L476.64, 193.719L474.659, 193.525L472.772, 192.952L471.033, 192.022L469.495, 190.758L468.199, 189.173L467.274, 187.416L466.718, 185.543L466.533, 183.613L466.718, 181.683L467.274, 179.81L468.199, 178.051L469.495, 176.465L471.075, 175.172L472.829, 174.249L474.698, 173.697L476.625, 173.513L478.267, 173.648L479.867, 174.043L495.25, 158.66L495.25, 149.43L492.965, 147.877L491.185, 145.774L490.523, 144.552L490.031, 143.236L489.725, 141.84L489.62, 140.38L489.825, 138.342L490.415, 136.444L491.347, 134.726L492.582, 133.23L494.078, 131.996L495.795, 131.064L497.693, 130.475L499.73, 130.27"/><path stroke="black" fill="none" stroke-width="1" d="M419.09, 86.027L420.627, 86.338L421.882, 87.184L422.729, 88.44L423.04, 89.977L422.887, 91.066L422.447, 92.051L421.752, 92.88L420.832, 93.504L419.09, 94.367L417.348, 93.504L416.429, 92.878L415.734, 92.049L415.295, 91.065L415.141, 89.976L415.453, 88.44L416.299, 87.185L417.554, 86.339L419.09, 86.027"/><path stroke="black" fill="none" stroke-width="1" d="M318.32, 166.64L319.41, 166.793L320.394, 167.232L321.224, 167.927L321.847, 168.847L322.711, 170.589L321.847, 172.331L321.23, 173.245L320.4, 173.94L319.412, 174.382L318.32, 174.538L316.783, 174.227L315.528, 173.381L314.681, 172.125L314.37, 170.589L314.681, 169.052L315.528, 167.797L316.783, 166.95L318.32, 166.64"/><path stroke="black" fill="none" stroke-width="1" d="M419.09, 79.867L419.091, 79.866L421.128, 80.071L423.025, 80.66L424.742, 81.592L426.238, 82.825L427.472, 84.321L428.405, 86.037L428.996, 87.933L429.204, 89.969L429.099, 91.431L428.793, 92.826L428.302, 94.142L427.639, 95.364L425.86, 97.467L423.575, 99.019L423.575, 122.042L370.548, 175.069L327.368, 175.069L325.815, 177.354L323.711, 179.133L322.489, 179.796L321.174, 180.287L319.778, 180.593L318.318, 180.698L316.28, 180.493L314.383, 179.904L312.665, 178.972L311.169, 177.738L309.934, 176.242L309.002, 174.524L308.413, 172.627L308.208, 170.589L308.413, 168.551L309.003, 166.653L309.935, 164.935L311.169, 163.439L312.665, 162.205L314.383, 161.273L316.28, 160.684L318.317, 160.479L319.779, 160.584L321.175, 160.89L322.491, 161.382L323.713, 162.044L325.815, 163.824L327.367, 166.109L366.837, 166.109L414.61, 118.336L414.61, 99.026L412.325, 97.473L410.546, 95.37L409.883, 94.148L409.392, 92.832L409.086, 91.437L408.981, 89.976L409.186, 87.938L409.776, 86.04L410.708, 84.323L411.942, 82.827L413.438, 81.593L415.156, 80.661L417.053, 80.072L419.09, 79.867"/><path stroke="black" fill="none" stroke-width="1" d="M355.68, 72.984L356.652, 73.101L357.525, 73.436L358.277, 73.955L358.884, 74.627L359.324, 75.419L359.572, 76.299L359.606, 77.234L359.403, 78.191L358.782, 80.035L356.938, 80.655L355.657, 80.863L354.153, 80.567L352.879, 79.715L352.023, 78.436L351.727, 76.925L352.025, 75.415L352.879, 74.136L354.165, 73.281L355.68, 72.984"/><path stroke="black" fill="none" stroke-width="1" d="M318.321, 136.398L319.411, 136.551L320.395, 136.99L321.225, 137.685L321.848, 138.605L322.712, 140.347L321.848, 142.089L321.231, 143.003L320.401, 143.698L319.413, 144.14L318.321, 144.296L316.784, 143.985L315.528, 143.139L314.682, 141.883L314.371, 140.347L314.682, 138.81L315.528, 137.555L316.784, 136.708L318.321, 136.398"/><path stroke="black" fill="none" stroke-width="1" d="M355.681, 66.824L355.68, 66.823L357.663, 67.019L359.55, 67.594L361.289, 68.528L362.825, 69.796L363.783, 70.903L364.553, 72.105L365.531, 74.714L365.76, 77.458L365.243, 80.171L395.184, 110.112L360.465, 144.831L327.362, 144.831L325.809, 147.116L323.706, 148.895L322.484, 149.558L321.168, 150.049L319.773, 150.355L318.312, 150.46L316.274, 150.255L314.376, 149.665L312.658, 148.733L311.162, 147.499L309.928, 146.003L308.996, 144.285L308.407, 142.388L308.202, 140.351L308.407, 138.313L308.997, 136.415L309.929, 134.697L311.164, 133.201L312.66, 131.967L314.377, 131.035L316.275, 130.446L318.312, 130.241L319.774, 130.346L321.17, 130.652L322.486, 131.144L323.708, 131.806L325.81, 133.586L327.363, 135.871L356.754, 135.871L382.516, 110.109L358.907, 86.5L357.305, 86.897L355.664, 87.031L353.687, 86.838L351.805, 86.267L350.07, 85.339L348.536, 84.078L347.24, 82.493L346.314, 80.736L345.759, 78.863L345.574, 76.933L345.759, 75.002L346.314, 73.129L347.24, 71.37L348.536, 69.784L350.073, 68.519L351.812, 67.589L353.699, 67.017L355.681, 66.824"/><path stroke="black" fill="none" stroke-width="1" d="M305.28, 72.984L306.252, 73.101L307.125, 73.436L307.877, 73.955L308.484, 74.627L308.924, 75.419L309.172, 76.299L309.206, 77.234L309.003, 78.191L308.382, 80.035L306.538, 80.655L305.257, 80.863L303.753, 80.567L302.479, 79.715L301.613, 78.409L301.325, 76.924L301.613, 75.439L302.479, 74.133L303.767, 73.284L305.28, 72.984"/><path stroke="black" fill="none" stroke-width="1" d="M331.327, 99.024L332.831, 99.32L334.104, 100.172L334.97, 101.478L335.258, 102.963L334.97, 104.448L334.104, 105.754L332.825, 106.61L331.315, 106.906L330.343, 106.789L329.47, 106.454L328.718, 105.935L328.111, 105.263L327.671, 104.471L327.423, 103.591L327.389, 102.656L327.593, 101.699L328.213, 99.855L330.057, 99.234L331.327, 99.023"/><path stroke="black" fill="none" stroke-width="1" d="M305.28, 66.824L307.261, 67.019L309.147, 67.592L310.886, 68.521L312.424, 69.785L313.382, 70.892L314.152, 72.094L315.13, 74.703L315.36, 77.447L314.842, 80.16L328.076, 93.393L329.678, 92.997L331.318, 92.863L333.295, 93.056L335.178, 93.627L336.914, 94.554L338.448, 95.816L339.744, 97.401L340.669, 99.158L341.225, 101.031L341.41, 102.961L341.225, 104.891L340.669, 106.764L339.744, 108.523L338.448, 110.109L336.865, 111.405L335.107, 112.33L333.233, 112.884L331.303, 113.069L329.322, 112.875L327.436, 112.302L325.697, 111.373L324.159, 110.109L323.201, 109.002L322.431, 107.8L321.453, 105.191L321.223, 102.447L321.741, 99.734L308.507, 86.5L306.905, 86.897L305.265, 87.031L303.288, 86.838L301.405, 86.267L299.669, 85.34L298.135, 84.078L296.839, 82.493L295.914, 80.736L295.358, 78.863L295.173, 76.933L295.358, 75.002L295.914, 73.129L296.839, 71.37L298.135, 69.784L299.718, 68.488L301.476, 67.563L303.35, 67.009L305.28, 66.824"/><path stroke="black" fill="none" stroke-width="1" d="M411.95, 163.7L413.461, 163.998L414.74, 164.852L415.606, 166.158L415.894, 167.643L415.606, 169.128L414.74, 170.434L413.466, 171.286L411.962, 171.583L410.681, 171.376L408.837, 170.755L408.216, 168.911L408.008, 167.828L408.104, 166.75L408.489, 165.739L409.149, 164.856L410.436, 164.003L411.95, 163.7"/><path stroke="black" fill="none" stroke-width="1" d="M411.97, 209.903L413.474, 210.199L414.747, 211.051L415.613, 212.357L415.901, 213.842L415.613, 215.327L414.747, 216.633L413.468, 217.489L411.957, 217.786L410.447, 217.488L409.169, 216.633L408.505, 215.752L408.119, 214.74L408.024, 213.662L408.235, 212.579L408.856, 210.735L410.7, 210.114L411.97, 209.903"/><path stroke="black" fill="none" stroke-width="1" d="M411.95, 157.54L413.93, 157.735L415.816, 158.307L417.555, 159.235L419.094, 160.497L420.39, 162.082L421.316, 163.839L421.871, 165.712L422.057, 167.642L421.871, 169.572L421.316, 171.445L420.39, 173.204L419.094, 174.79L417.515, 176.084L415.762, 177.006L413.893, 177.559L411.966, 177.743L410.323, 177.608L408.723, 177.212L403.419, 182.517L403.419, 198.962L408.723, 204.266L410.325, 203.869L411.966, 203.735L413.942, 203.929L415.825, 204.5L417.56, 205.427L419.094, 206.688L420.39, 208.273L421.316, 210.03L421.871, 211.903L422.057, 213.833L421.871, 215.764L421.316, 217.637L420.39, 219.396L419.094, 220.982L417.557, 222.247L415.818, 223.177L413.931, 223.749L411.95, 223.942L409.969, 223.748L408.082, 223.175L406.343, 222.245L404.805, 220.981L403.847, 219.874L403.077, 218.672L402.099, 216.063L401.87, 213.319L402.387, 210.606L394.457, 202.676L394.457, 178.806L402.387, 170.876L401.87, 168.164L402.099, 165.42L403.077, 162.81L403.847, 161.607L404.805, 160.5L406.388, 159.204L408.146, 158.279L410.02, 157.725L411.95, 157.54"/><path stroke="black" fill="none" stroke-width="1" d="M164.16, 214.11L165.132, 214.227L166.005, 214.562L166.757, 215.081L167.364, 215.753L167.804, 216.545L168.052, 217.425L168.086, 218.36L167.883, 219.317L167.262, 221.161L165.418, 221.781L164.137, 221.989L162.633, 221.693L161.359, 220.841L160.503, 219.561L160.207, 218.051L160.505, 216.541L161.359, 215.262L162.644, 214.405L164.16, 214.11"/><path stroke="black" fill="none" stroke-width="1" d="M318.27, 277.524L319.349, 277.695L320.288, 278.125L321.062, 278.768L321.645, 279.575L322.012, 280.502L322.137, 281.5L321.993, 282.523L321.557, 283.524L320.937, 284.303L320.156, 284.894L319.254, 285.275L318.27, 285.422L317.181, 285.269L316.196, 284.83L315.367, 284.135L314.743, 283.215L313.88, 281.473L314.743, 279.731L315.359, 278.816L316.189, 278.12L317.178, 277.678L318.27, 277.524"/><path stroke="black" fill="none" stroke-width="1" d="M164.16, 207.95L164.16, 207.951L166.141, 208.147L168.028, 208.721L169.767, 209.651L171.305, 210.916L172.263, 212.023L173.033, 213.225L174.011, 215.834L174.24, 218.578L173.723, 221.291L229.425, 276.994L309.215, 276.994L310.768, 274.709L312.872, 272.93L314.093, 272.267L315.409, 271.776L316.805, 271.47L318.265, 271.365L320.303, 271.57L322.201, 272.16L323.919, 273.092L325.415, 274.326L326.649, 275.822L327.581, 277.539L328.17, 279.436L328.375, 281.473L328.17, 283.511L327.58, 285.409L326.648, 287.127L325.413, 288.623L323.917, 289.857L322.2, 290.789L320.302, 291.378L318.265, 291.583L316.804, 291.478L315.408, 291.172L314.092, 290.681L312.87, 290.018L310.767, 288.239L309.215, 285.954L225.715, 285.954L167.387, 227.626L165.785, 228.023L164.145, 228.157L162.168, 227.964L160.285, 227.393L158.55, 226.466L157.016, 225.204L155.72, 223.619L154.794, 221.862L154.239, 219.989L154.053, 218.059L154.239, 216.128L154.794, 214.255L155.72, 212.496L157.016, 210.91L158.553, 209.645L160.292, 208.715L162.179, 208.143L164.16, 207.95"/><path stroke="black" fill="none" stroke-width="1" d="M542.99, 214.11L544.501, 214.408L545.78, 215.262L546.646, 216.568L546.934, 218.053L546.646, 219.538L545.78, 220.844L544.506, 221.696L543.002, 221.993L541.721, 221.786L539.877, 221.165L539.256, 219.321L539.048, 218.238L539.144, 217.16L539.529, 216.149L540.189, 215.266L541.475, 214.41L542.99, 214.11"/><path stroke="black" fill="none" stroke-width="1" d="M502.158, 277.048L503.9, 277.911L504.815, 278.53L505.51, 279.362L505.953, 280.352L506.107, 281.446L505.796, 282.983L504.95, 284.239L503.694, 285.085L502.158, 285.396L500.622, 285.085L499.366, 284.239L498.519, 282.983L498.208, 281.446L498.361, 280.356L498.801, 279.371L499.496, 278.539L500.416, 277.911L502.158, 277.048"/><path stroke="black" fill="none" stroke-width="1" d="M542.99, 207.95L542.989, 207.95L544.969, 208.145L546.856, 208.718L548.595, 209.646L550.134, 210.907L551.43, 212.492L552.356, 214.249L552.911, 216.122L553.096, 218.052L552.911, 219.982L552.356, 221.855L551.43, 223.614L550.134, 225.2L548.554, 226.494L546.801, 227.416L544.932, 227.969L543.005, 228.153L541.363, 228.018L539.763, 227.622L506.646, 260.739L506.649, 272.391L508.935, 273.944L510.714, 276.047L511.376, 277.269L511.868, 278.585L512.174, 279.981L512.279, 281.441L512.074, 283.479L511.484, 285.377L510.552, 287.095L509.318, 288.591L507.822, 289.825L506.104, 290.757L504.207, 291.346L502.17, 291.551L500.132, 291.346L498.234, 290.756L496.516, 289.824L495.02, 288.59L493.786, 287.093L492.854, 285.376L492.265, 283.478L492.06, 281.441L492.165, 279.979L492.471, 278.584L492.963, 277.268L493.625, 276.046L495.405, 273.943L497.69, 272.391L497.69, 257.024L533.428, 221.286L532.91, 218.574L533.14, 215.83L534.118, 213.22L534.888, 212.017L535.846, 210.91L537.383, 209.645L539.122, 208.715L541.009, 208.143L542.99, 207.95"/><path stroke="black" fill="none" stroke-width="1" d="M348.53, 307.79L350.067, 308.101L351.323, 308.948L352.169, 310.203L352.48, 311.74L352.327, 312.829L351.887, 313.814L351.192, 314.643L350.272, 315.267L348.53, 316.13L346.788, 315.267L345.869, 314.642L345.174, 313.812L344.735, 312.828L344.581, 311.739L344.894, 310.203L345.74, 308.949L346.994, 308.103L348.53, 307.79"/><path stroke="black" fill="none" stroke-width="1" d="M348.503, 479.12L350.04, 479.431L351.295, 480.278L352.142, 481.533L352.452, 483.07L352.141, 484.607L351.294, 485.862L350.039, 486.708L348.502, 487.018L347.413, 486.865L346.428, 486.426L345.599, 485.731L344.975, 484.811L344.112, 483.069L344.975, 481.327L345.592, 480.412L346.422, 479.716L347.41, 479.274L348.503, 479.12"/><path stroke="black" fill="none" stroke-width="1" d="M348.53, 301.63L348.53, 301.636L350.568, 301.841L352.466, 302.43L354.184, 303.361L355.68, 304.595L356.915, 306.089L357.848, 307.805L358.439, 309.7L358.647, 311.734L358.542, 313.196L358.236, 314.591L357.745, 315.907L357.082, 317.129L355.303, 319.232L353.018, 320.785L353.018, 444.605L319.03, 478.593L339.46, 478.593L341.013, 476.308L343.116, 474.529L344.338, 473.866L345.654, 473.375L347.05, 473.069L348.51, 472.964L350.548, 473.169L352.446, 473.759L354.164, 474.691L355.66, 475.925L356.894, 477.421L357.826, 479.138L358.415, 481.035L358.62, 483.072L358.415, 485.11L357.825, 487.008L356.893, 488.726L355.659, 490.222L354.162, 491.456L352.445, 492.388L350.547, 492.977L348.51, 493.182L347.048, 493.077L345.653, 492.771L344.337, 492.28L343.115, 491.617L341.012, 489.838L339.46, 487.553L297.398, 487.553L344.05, 440.9L344.05, 320.789L341.765, 319.236L339.986, 317.133L339.323, 315.911L338.832, 314.595L338.526, 313.2L338.421, 311.739L338.626, 309.701L339.216, 307.803L340.148, 306.086L341.382, 304.59L342.878, 303.356L344.596, 302.424L346.493, 301.835L348.53, 301.63"/><path stroke="black" fill="none" stroke-width="1" d="M553.07, 254.43L554.58, 254.728L555.86, 255.582L556.726, 256.888L557.014, 258.373L556.726, 259.858L555.86, 261.164L554.586, 262.016L553.082, 262.313L551.801, 262.106L549.957, 261.485L549.336, 259.641L549.128, 258.558L549.224, 257.48L549.609, 256.469L550.269, 255.586L551.555, 254.731L553.07, 254.43"/><path stroke="black" fill="none" stroke-width="1" d="M469.871, 438.33L471.613, 439.193L472.528, 439.812L473.223, 440.644L473.666, 441.634L473.82, 442.728L473.509, 444.265L472.663, 445.521L471.407, 446.367L469.871, 446.678L468.335, 446.364L467.082, 445.516L466.236, 444.261L465.926, 442.724L466.079, 441.634L466.518, 440.649L467.213, 439.817L468.133, 439.189L469.871, 438.329"/><path stroke="black" fill="none" stroke-width="1" d="M553.071, 248.269L553.069, 248.27L555.05, 248.465L556.936, 249.037L558.675, 249.965L560.214, 251.227L561.51, 252.812L562.436, 254.569L562.991, 256.442L563.176, 258.372L562.991, 260.302L562.436, 262.175L561.51, 263.934L560.214, 265.52L558.634, 266.814L556.881, 267.736L555.012, 268.289L553.085, 268.473L551.443, 268.338L549.843, 267.942L544.538, 273.246L544.538, 316.191L501.593, 316.191L474.351, 343.433L474.351, 433.68L476.636, 435.233L478.415, 437.336L479.078, 438.558L479.569, 439.874L479.875, 441.269L479.98, 442.73L479.775, 444.768L479.185, 446.666L478.253, 448.384L477.019, 449.88L475.523, 451.114L473.805, 452.046L471.908, 452.635L469.871, 452.84L467.833, 452.635L465.935, 452.045L464.218, 451.113L462.722, 449.878L461.488, 448.382L460.556, 446.665L459.967, 444.767L459.762, 442.73L459.867, 441.268L460.173, 439.873L460.664, 438.557L461.327, 437.335L463.106, 435.232L465.391, 433.679L465.391, 339.722L497.883, 307.23L535.578, 307.23L535.578, 269.536L543.508, 261.606L542.99, 258.894L543.22, 256.15L544.198, 253.54L544.968, 252.337L545.926, 251.231L547.509, 249.934L549.266, 249.009L551.14, 248.454L553.071, 248.269"/><path stroke="black" fill="none" stroke-width="1" d="M540.02, 338L541.557, 338.311L542.812, 339.157L543.659, 340.413L543.97, 341.95L543.659, 343.487L542.812, 344.742L541.557, 345.588L540.02, 345.898L538.93, 345.745L537.946, 345.306L537.116, 344.611L536.493, 343.691L535.629, 341.949L536.493, 340.207L537.109, 339.292L537.939, 338.597L538.928, 338.154L540.02, 338"/><path stroke="black" fill="none" stroke-width="1" d="M511.641, 402.543L513.145, 402.839L514.418, 403.691L515.284, 404.997L515.572, 406.482L515.284, 407.967L514.418, 409.273L513.139, 410.129L511.629, 410.426L510.658, 410.309L509.784, 409.974L509.033, 409.454L508.425, 408.782L507.986, 407.99L507.738, 407.111L507.704, 406.176L507.907, 405.219L508.527, 403.375L510.371, 402.754L511.641, 402.543"/><path stroke="black" fill="none" stroke-width="1" d="M540.02, 331.84L540.02, 331.841L542.058, 332.047L543.956, 332.637L545.673, 333.57L547.169, 334.806L548.402, 336.303L549.332, 338.02L549.919, 339.917L550.122, 341.953L549.917, 343.991L549.327, 345.889L548.395, 347.607L547.161, 349.103L545.665, 350.337L543.947, 351.269L542.05, 351.858L540.013, 352.063L538.551, 351.958L537.155, 351.652L535.839, 351.16L534.617, 350.498L532.515, 348.719L530.963, 346.434L511.653, 346.434L503.079, 355.008L503.079, 391.613L508.384, 396.918L509.986, 396.52L511.625, 396.386L513.602, 396.579L515.485, 397.151L517.22, 398.078L518.755, 399.339L520.051, 400.924L520.976, 402.681L521.532, 404.554L521.717, 406.484L521.532, 408.415L520.976, 410.288L520.051, 412.047L518.755, 413.633L517.172, 414.929L515.414, 415.854L513.54, 416.408L511.61, 416.593L509.629, 416.398L507.743, 415.825L506.004, 414.896L504.466, 413.632L503.508, 412.525L502.738, 411.323L501.76, 408.714L501.53, 405.97L502.048, 403.257L494.118, 395.327L494.118, 351.297L507.946, 337.469L530.97, 337.469L532.522, 335.184L534.626, 333.405L535.848, 332.742L537.164, 332.251L538.559, 331.945L540.02, 331.84"/><path stroke="black" fill="none" stroke-width="1" d="M432.12, 461.91L433.624, 462.206L434.897, 463.058L435.753, 464.337L436.05, 465.848L435.752, 467.358L434.897, 468.637L433.618, 469.493L432.108, 469.789L431.137, 469.672L430.263, 469.337L429.512, 468.817L428.904, 468.145L428.465, 467.353L428.217, 466.474L428.183, 465.539L428.386, 464.582L429.006, 462.738L430.85, 462.117L432.12, 461.91"/><path stroke="black" fill="none" stroke-width="1" d="M378.768, 478.648L380.51, 479.511L381.429, 480.136L382.124, 480.966L382.563, 481.95L382.717, 483.039L382.406, 484.576L381.56, 485.831L380.304, 486.678L378.767, 486.988L377.23, 486.677L375.975, 485.83L375.129, 484.575L374.819, 483.038L374.972, 481.949L375.411, 480.964L376.106, 480.135L377.026, 479.511L378.768, 478.648"/><path stroke="black" fill="none" stroke-width="1" d="M374.288, 401.699L428.872, 456.281L430.474, 455.884L432.114, 455.75L434.091, 455.943L435.974, 456.514L437.71, 457.441L439.244, 458.703L440.54, 460.288L441.465, 462.045L442.021, 463.918L442.206, 465.848L442.021, 467.778L441.465, 469.651L440.54, 471.41L439.244, 472.996L437.661, 474.292L435.903, 475.217L434.029, 475.771L432.099, 475.956L430.118, 475.762L428.232, 475.189L426.493, 474.26L424.955, 472.996L423.997, 471.889L423.227, 470.687L422.249, 468.078L422.019, 465.334L422.537, 462.621L383.247, 423.332L383.247, 474L385.533, 475.553L387.312, 477.657L387.974, 478.878L388.466, 480.194L388.772, 481.59L388.877, 483.05L388.672, 485.088L388.082, 486.986L387.15, 488.704L385.916, 490.2L384.42, 491.434L382.702, 492.366L380.805, 492.955L378.768, 493.16L376.73, 492.955L374.832, 492.365L373.114, 491.433L371.618, 490.199L370.384, 488.702L369.452, 486.985L368.863, 485.087L368.658, 483.05L368.763, 481.588L369.069, 480.193L369.561, 478.877L370.223, 477.655L372.002, 475.552L374.288, 474L374.288, 401.699"/><path stroke="black" fill="none" stroke-width="1" d="M318.29, 317.87L319.827, 318.181L321.082, 319.028L321.929, 320.283L322.24, 321.82L322.087, 322.909L321.647, 323.894L320.952, 324.723L320.032, 325.347L318.29, 326.21L316.548, 325.347L315.629, 324.721L314.934, 323.892L314.495, 322.908L314.341, 321.819L314.653, 320.283L315.499, 319.028L316.754, 318.182L318.29, 317.87"/><path stroke="black" fill="none" stroke-width="1" d="M285.102, 461.91L286.383, 462.117L288.227, 462.738L288.848, 464.582L289.056, 465.665L288.96, 466.743L288.575, 467.754L287.915, 468.637L286.636, 469.493L285.125, 469.789L283.615, 469.492L282.336, 468.637L281.48, 467.358L281.184, 465.847L281.482, 464.337L282.336, 463.058L283.602, 462.203L285.102, 461.91"/><path stroke="black" fill="none" stroke-width="1" d="M318.29, 311.71L318.291, 311.711L320.328, 311.916L322.225, 312.505L323.942, 313.437L325.439, 314.67L326.674, 316.165L327.607, 317.881L328.197, 319.777L328.404, 321.813L328.299, 323.275L327.993, 324.671L327.501, 325.987L326.839, 327.209L325.06, 329.311L322.775, 330.864L322.771, 434.534L294.681, 462.624L295.198, 465.335L294.969, 468.079L293.991, 470.689L293.221, 471.892L292.263, 472.999L290.68, 474.295L288.922, 475.22L287.048, 475.774L285.118, 475.959L283.137, 475.765L281.25, 475.192L279.511, 474.263L277.973, 472.999L276.677, 471.414L275.752, 469.657L275.196, 467.784L275.011, 465.854L275.196, 463.924L275.752, 462.05L276.677, 460.292L277.973, 458.706L279.553, 457.412L281.307, 456.49L283.176, 455.937L285.103, 455.753L286.745, 455.888L288.345, 456.284L313.81, 430.819L313.81, 330.869L311.525, 329.316L309.745, 327.213L309.083, 325.991L308.591, 324.675L308.285, 323.28L308.18, 321.819L308.385, 319.781L308.975, 317.883L309.907, 316.166L311.142, 314.67L312.638, 313.436L314.355, 312.504L316.253, 311.915L318.29, 311.71"/><path stroke="black" fill="none" stroke-width="1" d="M184.32, 284.66L185.292, 284.777L186.165, 285.112L186.917, 285.631L187.524, 286.303L187.964, 287.095L188.212, 287.975L188.246, 288.91L188.043, 289.867L187.422, 291.711L185.578, 292.331L184.297, 292.539L182.793, 292.243L181.519, 291.391L180.653, 290.085L180.365, 288.6L180.653, 287.115L181.519, 285.809L182.807, 284.959L184.32, 284.66"/><path stroke="black" fill="none" stroke-width="1" d="M280.925, 381.262L282.429, 381.558L283.702, 382.411L284.568, 383.717L284.856, 385.202L284.568, 386.687L283.702, 387.993L282.423, 388.849L280.913, 389.145L279.942, 389.028L279.068, 388.693L278.317, 388.173L277.709, 387.501L277.27, 386.709L277.022, 385.83L276.988, 384.895L277.191, 383.938L277.811, 382.094L279.655, 381.473L280.925, 381.262"/><path stroke="black" fill="none" stroke-width="1" d="M184.32, 278.502L186.301, 278.698L188.188, 279.272L189.926, 280.202L191.464, 281.467L192.422, 282.574L193.192, 283.776L194.17, 286.385L194.4, 289.129L193.882, 291.842L277.675, 375.63L279.277, 375.234L280.917, 375.1L282.894, 375.293L284.777, 375.864L286.513, 376.791L288.047, 378.053L289.343, 379.638L290.268, 381.395L290.824, 383.268L291.009, 385.198L290.824, 387.128L290.268, 389.001L289.343, 390.76L288.047, 392.346L286.464, 393.642L284.706, 394.567L282.832, 395.121L280.902, 395.306L278.921, 395.112L277.035, 394.539L275.296, 393.61L273.758, 392.346L272.8, 391.239L272.03, 390.037L271.052, 387.428L270.822, 384.684L271.34, 381.971L187.547, 298.178L185.945, 298.575L184.305, 298.709L182.328, 298.516L180.445, 297.945L178.709, 297.018L177.175, 295.756L175.879, 294.171L174.954, 292.414L174.398, 290.541L174.213, 288.611L174.398, 286.68L174.954, 284.807L175.879, 283.048L177.175, 281.462L178.758, 280.166L180.516, 279.241L182.39, 278.687L184.32, 278.502"/><path stroke="black" fill="none" stroke-width="1" d="M257.84, 307.76L258.93, 307.913L259.914, 308.352L260.744, 309.047L261.367, 309.967L262.231, 311.709L261.367, 313.451L260.75, 314.365L259.92, 315.06L258.932, 315.502L257.84, 315.658L256.303, 315.347L255.048, 314.501L254.201, 313.245L253.89, 311.709L254.202, 310.173L255.049, 308.918L256.304, 308.072L257.84, 307.76"/><path stroke="black" fill="none" stroke-width="1" d="M288.055, 337.526L289.797, 338.389L290.716, 339.015L291.411, 339.844L291.85, 340.828L292.004, 341.917L291.693, 343.454L290.847, 344.709L289.592, 345.555L288.055, 345.866L286.518, 345.555L285.263, 344.708L284.416, 343.453L284.105, 341.916L284.258, 340.827L284.698, 339.842L285.393, 339.013L286.313, 338.389L288.055, 337.526"/><path stroke="black" fill="none" stroke-width="1" d="M257.84, 301.6L257.839, 301.599L259.301, 301.704L260.697, 302.01L262.012, 302.502L263.234, 303.165L265.338, 304.945L266.894, 307.233L292.535, 307.233L292.535, 332.873L294.82, 334.426L296.599, 336.53L297.262, 337.752L297.753, 339.067L298.059, 340.463L298.164, 341.923L297.959, 343.961L297.369, 345.859L296.437, 347.577L295.203, 349.073L293.707, 350.307L291.989, 351.239L290.092, 351.828L288.055, 352.033L286.017, 351.828L284.119, 351.238L282.401, 350.306L280.905, 349.072L279.671, 347.575L278.739, 345.858L278.15, 343.96L277.945, 341.923L278.05, 340.461L278.356, 339.066L278.848, 337.75L279.511, 336.528L281.29, 334.425L283.575, 332.873L283.575, 316.189L266.89, 316.189L265.337, 318.474L263.234, 320.253L262.012, 320.915L260.696, 321.407L259.301, 321.713L257.84, 321.818L255.802, 321.613L253.904, 321.023L252.187, 320.091L250.691, 318.857L249.457, 317.361L248.525, 315.643L247.936, 313.746L247.731, 311.709L247.936, 309.671L248.526, 307.773L249.458, 306.056L250.692, 304.56L252.188, 303.326L253.906, 302.394L255.803, 301.805L257.84, 301.6"/><path stroke="black" fill="none" stroke-width="1" d="M214.56, 365.3L215.532, 365.417L216.405, 365.752L217.157, 366.271L217.764, 366.943L218.204, 367.735L218.452, 368.615L218.486, 369.55L218.283, 370.507L217.662, 372.351L215.818, 372.971L214.537, 373.179L213.033, 372.883L211.759, 372.031L210.903, 370.752L210.607, 369.241L210.905, 367.731L211.759, 366.452L213.045, 365.597L214.56, 365.3"/><path stroke="black" fill="none" stroke-width="1" d="M254.87, 451.82L256.15, 452.027L257.994, 452.648L258.615, 454.492L258.823, 455.575L258.727, 456.653L258.342, 457.664L257.682, 458.547L256.403, 459.403L254.892, 459.699L253.382, 459.401L252.103, 458.547L251.247, 457.268L250.951, 455.757L251.249, 454.248L252.103, 452.968L253.369, 452.112L254.869, 451.82"/><path stroke="black" fill="none" stroke-width="1" d="M214.56, 359.14L214.56, 359.141L216.542, 359.336L218.43, 359.911L220.17, 360.841L221.709, 362.106L222.667, 363.213L223.437, 364.415L224.415, 367.024L224.644, 369.768L224.127, 372.481L284.303, 432.672L264.44, 452.535L264.957, 455.246L264.728, 457.99L263.75, 460.6L262.98, 461.803L262.022, 462.91L260.439, 464.206L258.681, 465.131L256.807, 465.685L254.877, 465.87L252.947, 465.685L251.075, 465.129L249.318, 464.204L247.733, 462.91L246.437, 461.325L245.511, 459.568L244.956, 457.695L244.771, 455.765L244.956, 453.835L245.511, 451.962L246.437, 450.203L247.733, 448.617L249.312, 447.323L251.065, 446.401L252.934, 445.848L254.861, 445.664L256.504, 445.798L258.104, 446.194L271.635, 432.664L217.787, 378.816L216.185, 379.213L214.544, 379.347L212.567, 379.154L210.685, 378.583L208.95, 377.655L207.416, 376.394L206.12, 374.809L205.194, 373.052L204.639, 371.179L204.454, 369.249L204.639, 367.318L205.194, 365.445L206.12, 363.686L207.416, 362.1L208.953, 360.835L210.692, 359.905L212.579, 359.333L214.56, 359.14"/><path stroke="black" fill="none" stroke-width="1" d="M174.24, 375.39L175.212, 375.507L176.085, 375.842L176.837, 376.361L177.444, 377.033L177.884, 377.825L178.132, 378.705L178.166, 379.64L177.963, 380.597L177.342, 382.441L175.498, 383.061L174.217, 383.269L172.713, 382.973L171.439, 382.121L170.573, 380.815L170.285, 379.33L170.573, 377.845L171.439, 376.539L172.727, 375.69L174.24, 375.39"/><path stroke="black" fill="none" stroke-width="1" d="M220.447, 421.59L221.951, 421.886L223.224, 422.738L224.09, 424.044L224.378, 425.529L224.09, 427.014L223.224, 428.32L221.945, 429.176L220.435, 429.472L219.464, 429.355L218.59, 429.02L217.839, 428.5L217.231, 427.828L216.792, 427.036L216.544, 426.157L216.51, 425.222L216.713, 424.265L217.333, 422.421L219.178, 421.8L220.447, 421.589"/><path stroke="black" fill="none" stroke-width="1" d="M174.24, 369.23L176.221, 369.424L178.108, 369.997L179.847, 370.927L181.385, 372.191L182.343, 373.298L183.113, 374.5L184.091, 377.109L184.32, 379.853L183.803, 382.566L217.198, 415.96L218.799, 415.564L220.439, 415.43L222.416, 415.623L224.299, 416.194L226.035, 417.121L227.569, 418.383L228.865, 419.968L229.79, 421.725L230.346, 423.598L230.531, 425.528L230.346, 427.458L229.79, 429.331L228.865, 431.09L227.569, 432.676L225.986, 433.972L224.228, 434.897L222.354, 435.451L220.424, 435.636L218.494, 435.451L216.622, 434.895L214.865, 433.97L213.28, 432.676L212.322, 431.569L211.552, 430.367L210.574, 427.758L210.344, 425.014L210.862, 422.301L177.467, 388.906L175.865, 389.303L174.224, 389.437L172.247, 389.244L170.365, 388.673L168.63, 387.745L167.096, 386.484L165.8, 384.899L164.874, 383.142L164.319, 381.269L164.133, 379.339L164.319, 377.408L164.874, 375.535L165.8, 373.776L167.096, 372.19L168.633, 370.925L170.372, 369.995L172.259, 369.423L174.24, 369.23"/></svg>